<mxfile host="65bd71144e">
    <diagram id="VXaFxo0FiwJ81_RNlHbv" name="Title Page">
        <mxGraphModel dx="1407" dy="917" grid="1" gridSize="10" guides="1" tooltips="1" connect="1" arrows="1" fold="1" page="1" pageScale="1" pageWidth="850" pageHeight="1100" math="0" shadow="0">
            <root>
                <mxCell id="0"/>
                <mxCell id="1" parent="0"/>
                <mxCell id="18" value="" style="rounded=0;whiteSpace=wrap;html=1;fontSize=12;" vertex="1" parent="1">
                    <mxGeometry width="850" height="120" as="geometry"/>
                </mxCell>
                <mxCell id="9" value="Quote Me, Senpai" style="rounded=0;whiteSpace=wrap;html=1;" vertex="1" parent="1">
                    <mxGeometry x="345" y="50" width="120" height="60" as="geometry"/>
                </mxCell>
                <mxCell id="10" value="" style="rounded=0;whiteSpace=wrap;html=1;" vertex="1" parent="1">
                    <mxGeometry x="190" y="150" width="420" height="210" as="geometry"/>
                </mxCell>
                <mxCell id="12" value="" style="rounded=0;whiteSpace=wrap;html=1;" vertex="1" parent="1">
                    <mxGeometry x="590" y="10" width="230" height="30" as="geometry"/>
                </mxCell>
                <mxCell id="13" value="Random Quote Generator" style="rounded=0;whiteSpace=wrap;html=1;" vertex="1" parent="1">
                    <mxGeometry x="660" y="15" width="150" height="20" as="geometry"/>
                </mxCell>
                <mxCell id="15" value="Home" style="rounded=0;whiteSpace=wrap;html=1;" vertex="1" parent="1">
                    <mxGeometry x="600" y="15" width="50" height="20" as="geometry"/>
                </mxCell>
                <mxCell id="16" value="&lt;font style=&quot;font-size: 12px&quot;&gt;Start Quiz&lt;/font&gt;" style="rounded=0;whiteSpace=wrap;html=1;fontSize=7;" vertex="1" parent="1">
                    <mxGeometry x="365" y="300" width="70" height="30" as="geometry"/>
                </mxCell>
                <mxCell id="17" value="Test your knowledge!" style="rounded=0;whiteSpace=wrap;html=1;fontSize=12;" vertex="1" parent="1">
                    <mxGeometry x="260" y="190" width="290" height="60" as="geometry"/>
                </mxCell>
            </root>
        </mxGraphModel>
    </diagram>
    <diagram id="PHAZTwvSJs3tpsg8RhT4" name="Quiz">
        <mxGraphModel dx="1407" dy="917" grid="1" gridSize="10" guides="1" tooltips="1" connect="1" arrows="1" fold="1" page="1" pageScale="1" pageWidth="850" pageHeight="1100" math="0" shadow="0">
            <root>
                <mxCell id="rj7ZBL9GnCpkZjyiGFAT-0"/>
                <mxCell id="rj7ZBL9GnCpkZjyiGFAT-1" parent="rj7ZBL9GnCpkZjyiGFAT-0"/>
            </root>
        </mxGraphModel>
    </diagram>
</mxfile>